# xmcd CD database file
#
# Track frame offsets:
#	150
#	21327
#	52385
#	79810
#	128245
#	163675
#	190862
#
# Disc length: 3050 seconds
#
# Revision: 0
# Processed by: cddbd v1.5.1PL0 Copyright (c) Steve Scherf et al.
# Submitted via: CDex 1.51
#
DISCID=5f0be807
DTITLE=Aaron Parks - Shadows
DYEAR=2002
DGENRE=Jazz
TTITLE0=Knives Out
TTITLE1=Shortly
TTITLE2=Shadows
TTITLE3=Alone Together
TTITLE4=Dancing by Myself
TTITLE5=Solar
TTITLE6=Memory of a Flame
EXTD=YEAR: 2002
EXTT0=
EXTT1=
EXTT2=
EXTT3=
EXTT4=
EXTT5=
EXTT6=
PLAYORDER=
